<svg xmlns="http://www.w3.org/2000/svg" xmlns:xlink="http://www.w3.org/1999/xlink" contentStyleType="text/css" data-diagram-type="SEQUENCE" height="807px" preserveAspectRatio="none" style="width:696px;height:807px;background:#FFFFFF;" version="1.1" viewBox="0 0 696 807" width="696px" zoomAndPan="magnify"><title>Solid</title><defs/><g><text fill="#000000" font-family="sans-serif" font-size="14" font-weight="bold" lengthAdjust="spacing" textLength="39.3203" x="324.4009" y="27.9951">Solid</text><text fill="#000000" font-family="sans-serif" font-size="14" font-weight="bold" lengthAdjust="spacing" textLength="184.0781" x="252.022" y="44.292">OpenID Connect (OIDC)</text><text fill="#000000" font-family="sans-serif" font-size="14" font-weight="bold" lengthAdjust="spacing" textLength="290.6436" x="198.7393" y="60.5889">Authorization Code Flow - Example 5</text><rect fill="#784AF7" fill-opacity="0.53333" height="725.1172" style="stroke:#181818;stroke-width:0.5;" width="327.4766" x="335.6455" y="75.8906"/><text fill="#000000" font-family="sans-serif" font-size="13" font-weight="bold" lengthAdjust="spacing" textLength="36.5117" x="478.865" y="87.9575">Solid</text><g><title>Identity Provider</title><rect fill="#784AF7" fill-opacity="0.53333" height="29.1328" style="stroke:#181818;stroke-width:1;" width="10" x="419.1719" y="477.1094"/></g><g><title>Storage Provider</title><rect fill="#784AF7" fill-opacity="0.53333" height="29.1328" style="stroke:#181818;stroke-width:1;" width="10" x="583.9102" y="656.5781"/></g><rect fill="#FFFFFF" fill-opacity="0.53333" height="382.5313" style="stroke:#000000;stroke-width:1.5;" width="656.2119" x="22.9102" y="318.1797"/><rect fill="#FFFFFF" fill-opacity="0.53333" height="351.3984" style="stroke:#000000;stroke-width:1.5;" width="636.2119" x="32.9102" y="342.3125"/><rect fill="#FFFFFF" fill-opacity="0.53333" height="189.6016" style="stroke:#000000;stroke-width:1.5;" width="475.7881" x="42.9102" y="423.7109"/><rect fill="#FFFFFF" fill-opacity="0.53333" height="56.9375" style="stroke:none;stroke-width:1;" width="475.7881" x="42.9102" y="556.375"/><g><title>User</title><rect fill="#000000" fill-opacity="0.00000" height="558.7969" width="8" x="19.9551" y="158.9141"/><line style="stroke:#181818;stroke-width:0.5;stroke-dasharray:5,5;" x1="23" x2="23" y1="158.9141" y2="717.7109"/></g><g><title>Client</title><rect fill="#000000" fill-opacity="0.00000" height="558.7969" width="8" x="107.9556" y="158.9141"/><line style="stroke:#181818;stroke-width:0.5;stroke-dasharray:5,5;" x1="111.9102" x2="111.9102" y1="158.9141" y2="717.7109"/></g><g><title>Identity Provider</title><rect fill="#000000" fill-opacity="0.00000" height="558.7969" width="8" x="420.1719" y="158.9141"/><line style="stroke:#181818;stroke-width:0.5;stroke-dasharray:5,5;" x1="423.6455" x2="423.6455" y1="158.9141" y2="717.7109"/></g><g><title>Storage Provider</title><rect fill="#000000" fill-opacity="0.00000" height="558.7969" width="8" x="584.9102" y="158.9141"/><line style="stroke:#181818;stroke-width:0.5;stroke-dasharray:5,5;" x1="588.6982" x2="588.6982" y1="158.9141" y2="717.7109"/></g><g class="participant participant-head" data-participant="user"><text fill="#000000" font-family="sans-serif" font-size="14" lengthAdjust="spacing" textLength="31.9102" x="5" y="155.6123">User</text><ellipse cx="23.9551" cy="89.1172" fill="none" rx="8" ry="8" style="stroke:#784AF788;stroke-width:2.5;"/><path d="M23.9551,97.1172 L23.9551,124.1172 M10.9551,105.1172 L36.9551,105.1172 M23.9551,124.1172 L10.9551,139.1172 M23.9551,124.1172 L36.9551,139.1172" fill="none" style="stroke:#784AF788;stroke-width:2.5;"/></g><g class="participant participant-tail" data-participant="user"><text fill="#000000" font-family="sans-serif" font-size="14" lengthAdjust="spacing" textLength="31.9102" x="5" y="729.7061">User</text><ellipse cx="23.9551" cy="743.5078" fill="none" rx="8" ry="8" style="stroke:#784AF788;stroke-width:2.5;"/><path d="M23.9551,751.5078 L23.9551,778.5078 M10.9551,759.5078 L36.9551,759.5078 M23.9551,778.5078 L10.9551,793.5078 M23.9551,778.5078 L36.9551,793.5078" fill="none" style="stroke:#784AF788;stroke-width:2.5;"/></g><g class="participant participant-head" data-participant="app"><rect fill="#FFFFFF" height="46.5938" rx="2.5" ry="2.5" style="stroke:#181818;stroke-width:0.5;" width="118.0908" x="52.9102" y="111.3203"/><text fill="#000000" font-family="sans-serif" font-size="14" lengthAdjust="spacing" textLength="40.5303" x="91.6904" y="131.3154">Client</text><text fill="#000000" font-family="sans-serif" font-size="14" lengthAdjust="spacing" textLength="104.0908" x="59.9102" y="147.6123">(Relying Party)</text></g><g class="participant participant-tail" data-participant="app"><rect fill="#FFFFFF" height="46.5938" rx="2.5" ry="2.5" style="stroke:#181818;stroke-width:0.5;" width="118.0908" x="52.9102" y="716.7109"/><text fill="#000000" font-family="sans-serif" font-size="14" lengthAdjust="spacing" textLength="40.5303" x="91.6904" y="736.7061">Client</text><text fill="#000000" font-family="sans-serif" font-size="14" lengthAdjust="spacing" textLength="104.0908" x="59.9102" y="753.0029">(Relying Party)</text></g><g class="participant participant-head" data-participant="solid.idp"><rect fill="#784AF7" fill-opacity="0.53333" height="62.8906" rx="2.5" ry="2.5" style="stroke:#181818;stroke-width:0.5;" width="169.0527" x="339.6455" y="95.0234"/><text fill="#000000" font-family="sans-serif" font-size="14" lengthAdjust="spacing" textLength="116.2998" x="366.022" y="115.0186">Identity Provider</text><text fill="#000000" font-family="sans-serif" font-size="14" lengthAdjust="spacing" textLength="93.0371" x="377.6533" y="131.3154">(OIDC Issuer)</text><text fill="#000000" font-family="sans-serif" font-size="14" lengthAdjust="spacing" textLength="155.0527" x="346.6455" y="147.6123">(Authorization Server)</text></g><g class="participant participant-tail" data-participant="solid.idp"><rect fill="#784AF7" fill-opacity="0.53333" height="62.8906" rx="2.5" ry="2.5" style="stroke:#181818;stroke-width:0.5;" width="169.0527" x="339.6455" y="716.7109"/><text fill="#000000" font-family="sans-serif" font-size="14" lengthAdjust="spacing" textLength="116.2998" x="366.022" y="736.7061">Identity Provider</text><text fill="#000000" font-family="sans-serif" font-size="14" lengthAdjust="spacing" textLength="93.0371" x="377.6533" y="753.0029">(OIDC Issuer)</text><text fill="#000000" font-family="sans-serif" font-size="14" lengthAdjust="spacing" textLength="155.0527" x="346.6455" y="769.2998">(Authorization Server)</text></g><g class="participant participant-head" data-participant="solid.pod"><rect fill="#784AF7" fill-opacity="0.53333" height="62.8906" rx="2.5" ry="2.5" style="stroke:#181818;stroke-width:0.5;" width="140.4238" x="518.6982" y="95.0234"/><text fill="#000000" font-family="sans-serif" font-size="14" lengthAdjust="spacing" textLength="117.4209" x="530.1997" y="115.0186">Storage Provider</text><text fill="#000000" font-family="sans-serif" font-size="14" lengthAdjust="spacing" textLength="36.8184" x="570.501" y="131.3154">(Pod)</text><text fill="#000000" font-family="sans-serif" font-size="14" lengthAdjust="spacing" textLength="126.4238" x="525.6982" y="147.6123">(Resource Server)</text></g><g class="participant participant-tail" data-participant="solid.pod"><rect fill="#784AF7" fill-opacity="0.53333" height="62.8906" rx="2.5" ry="2.5" style="stroke:#181818;stroke-width:0.5;" width="140.4238" x="518.6982" y="716.7109"/><text fill="#000000" font-family="sans-serif" font-size="14" lengthAdjust="spacing" textLength="117.4209" x="530.1997" y="736.7061">Storage Provider</text><text fill="#000000" font-family="sans-serif" font-size="14" lengthAdjust="spacing" textLength="36.8184" x="570.501" y="753.0029">(Pod)</text><text fill="#000000" font-family="sans-serif" font-size="14" lengthAdjust="spacing" textLength="126.4238" x="525.6982" y="769.2998">(Resource Server)</text></g><g><title>Identity Provider</title><rect fill="#784AF7" fill-opacity="0.53333" height="29.1328" style="stroke:#181818;stroke-width:1;" width="10" x="419.1719" y="477.1094"/></g><g><title>Storage Provider</title><rect fill="#784AF7" fill-opacity="0.53333" height="29.1328" style="stroke:#181818;stroke-width:1;" width="10" x="583.9102" y="656.5781"/></g><rect fill="#EEEEEE" height="3" style="stroke:#EEEEEE;stroke-width:1;" width="689.1221" x="0" y="189.4805"/><line style="stroke:#000000;stroke-width:1;" x1="0" x2="689.1221" y1="189.4805" y2="189.4805"/><line style="stroke:#000000;stroke-width:1;" x1="0" x2="689.1221" y1="192.4805" y2="192.4805"/><rect fill="#EEEEEE" height="23.1328" style="stroke:#000000;stroke-width:2;" width="65.5874" x="311.7673" y="178.9141"/><text fill="#000000" font-family="sans-serif" font-size="13" font-weight="bold" lengthAdjust="spacing" textLength="47.0615" x="317.7673" y="194.981">Actors</text><g class="message" data-participant-1="user" data-participant-2="app"><ellipse cx="23.4551" cy="217.2969" fill="#000000" rx="4" ry="4" style="stroke:#666666;stroke-width:1.5;"/><polygon fill="#666666" points="99.9556,214.0469,109.9556,218.0469,99.9556,222.0469,103.9556,218.0469" style="stroke:#666666;stroke-width:1;"/><line style="stroke:#666666;stroke-width:1.5;stroke-dasharray:2,2;" x1="27.9551" x2="105.9556" y1="218.0469" y2="218.0469"/></g><g class="message" data-participant-1="user" data-participant-2="solid.idp"><ellipse cx="23.4551" cy="231.2969" fill="#000000" rx="4" ry="4" style="stroke:#666666;stroke-width:1.5;"/><polygon fill="#666666" points="412.1719,228.0469,422.1719,232.0469,412.1719,236.0469,416.1719,232.0469" style="stroke:#666666;stroke-width:1;"/><line style="stroke:#666666;stroke-width:1.5;stroke-dasharray:2,2;" x1="27.9551" x2="418.1719" y1="232.0469" y2="232.0469"/></g><g class="message" data-participant-1="app" data-participant-2="solid.idp"><ellipse cx="111.4556" cy="245.2969" fill="#000000" rx="4" ry="4" style="stroke:#666666;stroke-width:1.5;"/><polygon fill="#666666" points="412.1719,242.0469,422.1719,246.0469,412.1719,250.0469,416.1719,246.0469" style="stroke:#666666;stroke-width:1;"/><line style="stroke:#666666;stroke-width:1.5;stroke-dasharray:2,2;" x1="115.9556" x2="418.1719" y1="246.0469" y2="246.0469"/></g><g class="message" data-participant-1="app" data-participant-2="solid.pod"><ellipse cx="111.4556" cy="259.2969" fill="#000000" rx="4" ry="4" style="stroke:#666666;stroke-width:1.5;"/><polygon fill="#666666" points="576.9102,256.0469,586.9102,260.0469,576.9102,264.0469,580.9102,260.0469" style="stroke:#666666;stroke-width:1;"/><line style="stroke:#666666;stroke-width:1.5;stroke-dasharray:2,2;" x1="115.9556" x2="582.9102" y1="260.0469" y2="260.0469"/></g><rect fill="#EEEEEE" height="3" style="stroke:#EEEEEE;stroke-width:1;" width="689.1221" x="0" y="288.6133"/><line style="stroke:#000000;stroke-width:1;" x1="0" x2="689.1221" y1="288.6133" y2="288.6133"/><line style="stroke:#000000;stroke-width:1;" x1="0" x2="689.1221" y1="291.6133" y2="291.6133"/><rect fill="#EEEEEE" height="23.1328" style="stroke:#000000;stroke-width:2;" width="60.541" x="314.2905" y="278.0469"/><text fill="#000000" font-family="sans-serif" font-size="13" font-weight="bold" lengthAdjust="spacing" textLength="42.0151" x="320.2905" y="294.1138">Flows</text><path d="M22.9102,318.1797 L263.6909,318.1797 L263.6909,325.3125 L253.6909,335.3125 L22.9102,335.3125 L22.9102,318.1797" fill="#EEEEEE" style="stroke:#000000;stroke-width:1.5;"/><rect fill="none" height="382.5313" style="stroke:#000000;stroke-width:1.5;" width="656.2119" x="22.9102" y="318.1797"/><text fill="#000000" font-family="sans-serif" font-size="13" font-weight="bold" lengthAdjust="spacing" textLength="195.7808" x="37.9102" y="331.2466">Offline Access (Example 5)</text><path d="M32.9102,342.3125 L102.3613,342.3125 L102.3613,349.4453 L92.3613,359.4453 L32.9102,359.4453 L32.9102,342.3125" fill="#EEEEEE" style="stroke:#000000;stroke-width:1.5;"/><rect fill="none" height="351.3984" style="stroke:#000000;stroke-width:1.5;" width="636.2119" x="32.9102" y="342.3125"/><text fill="#000000" font-family="sans-serif" font-size="13" font-weight="bold" lengthAdjust="spacing" textLength="24.4512" x="47.9102" y="355.3794">opt</text><text fill="#000000" font-family="sans-serif" font-size="11" font-weight="bold" lengthAdjust="spacing" textLength="149.4346" x="117.3613" y="354.5229">[No active user session]</text><g class="message" data-participant-1="app" data-participant-2="app"><line style="stroke:#666666;stroke-width:1.5;" x1="111.9556" x2="153.9556" y1="395.7109" y2="395.7109"/><line style="stroke:#666666;stroke-width:1.5;" x1="153.9556" x2="153.9556" y1="395.7109" y2="408.7109"/><line style="stroke:#666666;stroke-width:1.5;" x1="112.9556" x2="153.9556" y1="408.7109" y2="408.7109"/><polygon fill="#666666" points="122.9556,404.7109,112.9556,408.7109,122.9556,412.7109,118.9556,408.7109" style="stroke:#666666;stroke-width:1;"/><text fill="#000000" font-family="sans-serif" font-size="13" font-weight="bold" lengthAdjust="spacing" textLength="23.0293" x="118.9556" y="383.0786">5.1</text><text fill="#000000" font-family="sans-serif" font-size="13" lengthAdjust="spacing" textLength="160.6973" x="187.6255" y="375.5122">Load stored offline grant</text><text fill="#000000" font-family="sans-serif" font-size="13" lengthAdjust="spacing" textLength="243.9785" x="145.9849" y="390.645">(access_token, refresh_token, expiry)</text></g><path d="M42.9102,423.7109 L107.353,423.7109 L107.353,430.8438 L97.353,440.8438 L42.9102,440.8438 L42.9102,423.7109" fill="#EEEEEE" style="stroke:#000000;stroke-width:1.5;"/><rect fill="none" height="189.6016" style="stroke:#000000;stroke-width:1.5;" width="475.7881" x="42.9102" y="423.7109"/><text fill="#000000" font-family="sans-serif" font-size="13" font-weight="bold" lengthAdjust="spacing" textLength="19.4429" x="57.9102" y="436.7778">alt</text><text fill="#000000" font-family="sans-serif" font-size="11" font-weight="bold" lengthAdjust="spacing" textLength="142.2051" x="122.353" y="435.9214">[Access token expired]</text><g class="message" data-participant-1="app" data-participant-2="solid.idp"><polygon fill="#666666" points="407.1719,473.1094,417.1719,477.1094,407.1719,481.1094,411.1719,477.1094" style="stroke:#666666;stroke-width:1;"/><line style="stroke:#666666;stroke-width:1.5;" x1="111.9556" x2="413.1719" y1="477.1094" y2="477.1094"/><text fill="#000000" font-family="sans-serif" font-size="13" font-weight="bold" lengthAdjust="spacing" textLength="23.0293" x="121.4556" y="464.4771">5.2</text><text fill="#000000" font-family="sans-serif" font-size="13" lengthAdjust="spacing" textLength="144.7456" x="206.7056" y="456.9106">Refresh token request</text><text fill="#000000" font-family="sans-serif" font-size="13" lengthAdjust="spacing" textLength="261.187" x="148.4849" y="472.0435">(grant_type=refresh_token, DPoP proof)</text></g><g class="message" data-participant-1="solid.idp" data-participant-2="app"><polygon fill="#666666" points="122.9556,502.2422,112.9556,506.2422,122.9556,510.2422,118.9556,506.2422" style="stroke:#666666;stroke-width:1;"/><line style="stroke:#666666;stroke-width:1.5;stroke-dasharray:2,2;" x1="116.9556" x2="423.1719" y1="506.2422" y2="506.2422"/><text fill="#000000" font-family="sans-serif" font-size="13" font-weight="bold" lengthAdjust="spacing" textLength="23.0293" x="153.2532" y="501.1763">5.3</text><text fill="#000000" font-family="sans-serif" font-size="13" lengthAdjust="spacing" textLength="202.5918" x="180.2825" y="501.1763">Respond with refreshed tokens</text></g><g class="message" data-participant-1="app" data-participant-2="app"><line style="stroke:#666666;stroke-width:1.5;" x1="111.9556" x2="153.9556" y1="535.375" y2="535.375"/><line style="stroke:#666666;stroke-width:1.5;" x1="153.9556" x2="153.9556" y1="535.375" y2="548.375"/><line style="stroke:#666666;stroke-width:1.5;" x1="112.9556" x2="153.9556" y1="548.375" y2="548.375"/><polygon fill="#666666" points="122.9556,544.375,112.9556,548.375,122.9556,552.375,118.9556,548.375" style="stroke:#666666;stroke-width:1;"/><text fill="#000000" font-family="sans-serif" font-size="13" font-weight="bold" lengthAdjust="spacing" textLength="23.0293" x="118.9556" y="530.3091">5.4</text><text fill="#000000" font-family="sans-serif" font-size="13" lengthAdjust="spacing" textLength="193.8257" x="145.9849" y="530.3091">Persist refreshed offline grant</text></g><line style="stroke:#000000;stroke-width:1;stroke-dasharray:2,2;" x1="42.9102" x2="518.6982" y1="557.375" y2="557.375"/><text fill="#000000" font-family="sans-serif" font-size="11" font-weight="bold" lengthAdjust="spacing" textLength="152.2007" x="47.9102" y="567.5854">[Access token still valid]</text><g class="message" data-participant-1="app" data-participant-2="app"><line style="stroke:#666666;stroke-width:1.5;" x1="111.9556" x2="153.9556" y1="592.3125" y2="592.3125"/><line style="stroke:#666666;stroke-width:1.5;" x1="153.9556" x2="153.9556" y1="592.3125" y2="605.3125"/><line style="stroke:#666666;stroke-width:1.5;" x1="112.9556" x2="153.9556" y1="605.3125" y2="605.3125"/><polygon fill="#666666" points="122.9556,601.3125,112.9556,605.3125,122.9556,609.3125,118.9556,605.3125" style="stroke:#666666;stroke-width:1;"/><text fill="#000000" font-family="sans-serif" font-size="13" font-weight="bold" lengthAdjust="spacing" textLength="23.0293" x="118.9556" y="587.2466">5.5</text><text fill="#000000" font-family="sans-serif" font-size="13" lengthAdjust="spacing" textLength="174.478" x="145.9849" y="587.2466">Reuse stored access token</text></g><g class="message" data-participant-1="app" data-participant-2="solid.pod"><polygon fill="#666666" points="571.9102,652.5781,581.9102,656.5781,571.9102,660.5781,575.9102,656.5781" style="stroke:#666666;stroke-width:1;"/><line style="stroke:#666666;stroke-width:1.5;" x1="111.9556" x2="577.9102" y1="656.5781" y2="656.5781"/><text fill="#000000" font-family="sans-serif" font-size="13" font-weight="bold" lengthAdjust="spacing" textLength="23.0293" x="154.2051" y="643.9458">5.6</text><text fill="#000000" font-family="sans-serif" font-size="13" lengthAdjust="spacing" textLength="181.5938" x="270.6506" y="636.3794">Request protected resource</text><text fill="#000000" font-family="sans-serif" font-size="13" lengthAdjust="spacing" textLength="360.4263" x="181.2344" y="651.5122">(Authorization: DPoP {access_token}, DPoP: proof JWT)</text></g><g class="message" data-participant-1="solid.pod" data-participant-2="app"><polygon fill="#666666" points="122.9556,681.7109,112.9556,685.7109,122.9556,689.7109,118.9556,685.7109" style="stroke:#666666;stroke-width:1;"/><line style="stroke:#666666;stroke-width:1.5;stroke-dasharray:2,2;" x1="116.9556" x2="587.9102" y1="685.7109" y2="685.7109"/><text fill="#000000" font-family="sans-serif" font-size="13" font-weight="bold" lengthAdjust="spacing" textLength="23.0293" x="228.7097" y="680.645">5.7</text><text fill="#000000" font-family="sans-serif" font-size="13" lengthAdjust="spacing" textLength="216.417" x="255.739" y="680.645">Respond with protected resource</text></g><!--SRC=[XLDTIoin47tFhvZxre8jt0TV2Yk8LV1oiQKAlXHAt4njk6acviDF_EztadNRNRKOM9RDp9npSauswcWGhibejRGpX_Po2cTaBTOH1hFBwTbmQKzJt93Nhp9gibnL21U6dc04vyzowtZ-M8XVsjOcALoHhH5a7Sc7iKjR8qHLbVu0LIN4lQVaOBPU6sqHJkiQGu313cWeW9TCaMpQtg67u_7liaKkmXLbOFs8a0AN0e-oeb8kKyx1w2I_9l2Nf8B08b01VP3TUsdZqWva8Lr5-eVs23okFOPD-udFJlkNeTYZcjZAB2rD1wfTGuSwP1_7Mh60HGFxCUFn8M78v4N4Ahuuh3unJ-Sq1-U9riC-TZwoZBX7xvNpsbLWr1gmmE38AdZISTEUaRqeNA47eF07XgwlS_H1XzX1xBcxcqCJi6zRYDeOU9JCS11zWHni6vliJEznhHBYMzSTgGnGVCusHhx2ZC8gAVaQsVhUFPuqVhzrByDx4yAaIG7-tDxia_Za4RE9hmdmxe44lWeI1_rliVDP-O7oouZ_]--></g></svg>