<svg xmlns="http://www.w3.org/2000/svg" xmlns:xlink="http://www.w3.org/1999/xlink" contentStyleType="text/css" data-diagram-type="SEQUENCE" height="646px" preserveAspectRatio="none" style="width:737px;height:646px;background:#FFFFFF;" version="1.1" viewBox="0 0 737 646" width="737px" zoomAndPan="magnify"><title>Solid</title><defs/><g><text fill="#000000" font-family="sans-serif" font-size="14" font-weight="bold" lengthAdjust="spacing" textLength="39.3203" x="345.179" y="27.9951">Solid</text><text fill="#000000" font-family="sans-serif" font-size="14" font-weight="bold" lengthAdjust="spacing" textLength="184.0781" x="272.8" y="44.292">OpenID Connect (OIDC)</text><text fill="#000000" font-family="sans-serif" font-size="14" font-weight="bold" lengthAdjust="spacing" textLength="290.6436" x="219.5173" y="60.5889">Authorization Code Flow - Example 1</text><rect fill="#784AF7" fill-opacity="0.53333" height="564.3203" style="stroke:#181818;stroke-width:0.5;" width="327.4766" x="402.2017" y="75.8906"/><text fill="#000000" font-family="sans-serif" font-size="13" font-weight="bold" lengthAdjust="spacing" textLength="36.5117" x="545.4211" y="87.9575">Solid</text><g><title>Client</title><rect fill="#784AF7" fill-opacity="0.53333" height="167.3359" style="stroke:#181818;stroke-width:1;" width="10" x="221.6943" y="380.5781"/></g><g><title>Identity Provider</title><rect fill="#784AF7" fill-opacity="0.53333" height="29.1328" style="stroke:#181818;stroke-width:1;" width="10" x="485.728" y="409.7109"/></g><rect fill="#FFFFFF" fill-opacity="0.53333" height="221.7344" style="stroke:#000000;stroke-width:1.5;" width="585.2544" x="10" y="318.1797"/><rect fill="#FFFFFF" fill-opacity="0.53333" height="146.6641" style="stroke:#000000;stroke-width:1.5;" width="565.2544" x="20" y="342.3125"/><rect fill="#FFFFFF" fill-opacity="0.53333" height="43.9375" style="stroke:none;stroke-width:1;" width="585.2544" x="10" y="495.9766"/><g><title>User</title><rect fill="#000000" fill-opacity="0.00000" height="398" width="8" x="44.9551" y="158.9141"/><line style="stroke:#181818;stroke-width:0.5;stroke-dasharray:5,5;" x1="48" x2="48" y1="158.9141" y2="556.9141"/></g><g><title>Client</title><rect fill="#000000" fill-opacity="0.00000" height="398" width="8" x="222.6943" y="158.9141"/><line style="stroke:#181818;stroke-width:0.5;stroke-dasharray:5,5;" x1="226.6489" x2="226.6489" y1="158.9141" y2="556.9141"/></g><g><title>Identity Provider</title><rect fill="#000000" fill-opacity="0.00000" height="398" width="8" x="486.728" y="158.9141"/><line style="stroke:#181818;stroke-width:0.5;stroke-dasharray:5,5;" x1="490.2017" x2="490.2017" y1="158.9141" y2="556.9141"/></g><g><title>Storage Provider</title><rect fill="#000000" fill-opacity="0.00000" height="398" width="8" x="651.4663" y="158.9141"/><line style="stroke:#181818;stroke-width:0.5;stroke-dasharray:5,5;" x1="655.2544" x2="655.2544" y1="158.9141" y2="556.9141"/></g><g class="participant participant-head" data-participant="user"><text fill="#000000" font-family="sans-serif" font-size="14" lengthAdjust="spacing" textLength="31.9102" x="30" y="155.6123">User</text><ellipse cx="48.9551" cy="89.1172" fill="none" rx="8" ry="8" style="stroke:#784AF788;stroke-width:2.5;"/><path d="M48.9551,97.1172 L48.9551,124.1172 M35.9551,105.1172 L61.9551,105.1172 M48.9551,124.1172 L35.9551,139.1172 M48.9551,124.1172 L61.9551,139.1172" fill="none" style="stroke:#784AF788;stroke-width:2.5;"/></g><g class="participant participant-tail" data-participant="user"><text fill="#000000" font-family="sans-serif" font-size="14" lengthAdjust="spacing" textLength="31.9102" x="30" y="568.9092">User</text><ellipse cx="48.9551" cy="582.7109" fill="none" rx="8" ry="8" style="stroke:#784AF788;stroke-width:2.5;"/><path d="M48.9551,590.7109 L48.9551,617.7109 M35.9551,598.7109 L61.9551,598.7109 M48.9551,617.7109 L35.9551,632.7109 M48.9551,617.7109 L61.9551,632.7109" fill="none" style="stroke:#784AF788;stroke-width:2.5;"/></g><g class="participant participant-head" data-participant="app"><rect fill="#FFFFFF" height="46.5938" rx="2.5" ry="2.5" style="stroke:#181818;stroke-width:0.5;" width="118.0908" x="167.6489" y="111.3203"/><text fill="#000000" font-family="sans-serif" font-size="14" lengthAdjust="spacing" textLength="40.5303" x="206.4292" y="131.3154">Client</text><text fill="#000000" font-family="sans-serif" font-size="14" lengthAdjust="spacing" textLength="104.0908" x="174.6489" y="147.6123">(Relying Party)</text></g><g class="participant participant-tail" data-participant="app"><rect fill="#FFFFFF" height="46.5938" rx="2.5" ry="2.5" style="stroke:#181818;stroke-width:0.5;" width="118.0908" x="167.6489" y="555.9141"/><text fill="#000000" font-family="sans-serif" font-size="14" lengthAdjust="spacing" textLength="40.5303" x="206.4292" y="575.9092">Client</text><text fill="#000000" font-family="sans-serif" font-size="14" lengthAdjust="spacing" textLength="104.0908" x="174.6489" y="592.2061">(Relying Party)</text></g><g class="participant participant-head" data-participant="solid.idp"><rect fill="#784AF7" fill-opacity="0.53333" height="62.8906" rx="2.5" ry="2.5" style="stroke:#181818;stroke-width:0.5;" width="169.0527" x="406.2017" y="95.0234"/><text fill="#000000" font-family="sans-serif" font-size="14" lengthAdjust="spacing" textLength="116.2998" x="432.5781" y="115.0186">Identity Provider</text><text fill="#000000" font-family="sans-serif" font-size="14" lengthAdjust="spacing" textLength="93.0371" x="444.2095" y="131.3154">(OIDC Issuer)</text><text fill="#000000" font-family="sans-serif" font-size="14" lengthAdjust="spacing" textLength="155.0527" x="413.2017" y="147.6123">(Authorization Server)</text></g><g class="participant participant-tail" data-participant="solid.idp"><rect fill="#784AF7" fill-opacity="0.53333" height="62.8906" rx="2.5" ry="2.5" style="stroke:#181818;stroke-width:0.5;" width="169.0527" x="406.2017" y="555.9141"/><text fill="#000000" font-family="sans-serif" font-size="14" lengthAdjust="spacing" textLength="116.2998" x="432.5781" y="575.9092">Identity Provider</text><text fill="#000000" font-family="sans-serif" font-size="14" lengthAdjust="spacing" textLength="93.0371" x="444.2095" y="592.2061">(OIDC Issuer)</text><text fill="#000000" font-family="sans-serif" font-size="14" lengthAdjust="spacing" textLength="155.0527" x="413.2017" y="608.5029">(Authorization Server)</text></g><g class="participant participant-head" data-participant="solid.pod"><rect fill="#784AF7" fill-opacity="0.53333" height="62.8906" rx="2.5" ry="2.5" style="stroke:#181818;stroke-width:0.5;" width="140.4238" x="585.2544" y="95.0234"/><text fill="#000000" font-family="sans-serif" font-size="14" lengthAdjust="spacing" textLength="117.4209" x="596.7559" y="115.0186">Storage Provider</text><text fill="#000000" font-family="sans-serif" font-size="14" lengthAdjust="spacing" textLength="36.8184" x="637.0571" y="131.3154">(Pod)</text><text fill="#000000" font-family="sans-serif" font-size="14" lengthAdjust="spacing" textLength="126.4238" x="592.2544" y="147.6123">(Resource Server)</text></g><g class="participant participant-tail" data-participant="solid.pod"><rect fill="#784AF7" fill-opacity="0.53333" height="62.8906" rx="2.5" ry="2.5" style="stroke:#181818;stroke-width:0.5;" width="140.4238" x="585.2544" y="555.9141"/><text fill="#000000" font-family="sans-serif" font-size="14" lengthAdjust="spacing" textLength="117.4209" x="596.7559" y="575.9092">Storage Provider</text><text fill="#000000" font-family="sans-serif" font-size="14" lengthAdjust="spacing" textLength="36.8184" x="637.0571" y="592.2061">(Pod)</text><text fill="#000000" font-family="sans-serif" font-size="14" lengthAdjust="spacing" textLength="126.4238" x="592.2544" y="608.5029">(Resource Server)</text></g><g><title>Client</title><rect fill="#784AF7" fill-opacity="0.53333" height="167.3359" style="stroke:#181818;stroke-width:1;" width="10" x="221.6943" y="380.5781"/></g><g><title>Identity Provider</title><rect fill="#784AF7" fill-opacity="0.53333" height="29.1328" style="stroke:#181818;stroke-width:1;" width="10" x="485.728" y="409.7109"/></g><rect fill="#EEEEEE" height="3" style="stroke:#EEEEEE;stroke-width:1;" width="730.6782" x="0" y="189.4805"/><line style="stroke:#000000;stroke-width:1;" x1="0" x2="730.6782" y1="189.4805" y2="189.4805"/><line style="stroke:#000000;stroke-width:1;" x1="0" x2="730.6782" y1="192.4805" y2="192.4805"/><rect fill="#EEEEEE" height="23.1328" style="stroke:#000000;stroke-width:2;" width="65.5874" x="332.5454" y="178.9141"/><text fill="#000000" font-family="sans-serif" font-size="13" font-weight="bold" lengthAdjust="spacing" textLength="47.0615" x="338.5454" y="194.981">Actors</text><g class="message" data-participant-1="user" data-participant-2="app"><ellipse cx="48.4551" cy="217.2969" fill="#000000" rx="4" ry="4" style="stroke:#666666;stroke-width:1.5;"/><polygon fill="#666666" points="214.6943,214.0469,224.6943,218.0469,214.6943,222.0469,218.6943,218.0469" style="stroke:#666666;stroke-width:1;"/><line style="stroke:#666666;stroke-width:1.5;stroke-dasharray:2,2;" x1="52.9551" x2="220.6943" y1="218.0469" y2="218.0469"/></g><g class="message" data-participant-1="user" data-participant-2="solid.idp"><ellipse cx="48.4551" cy="231.2969" fill="#000000" rx="4" ry="4" style="stroke:#666666;stroke-width:1.5;"/><polygon fill="#666666" points="478.728,228.0469,488.728,232.0469,478.728,236.0469,482.728,232.0469" style="stroke:#666666;stroke-width:1;"/><line style="stroke:#666666;stroke-width:1.5;stroke-dasharray:2,2;" x1="52.9551" x2="484.728" y1="232.0469" y2="232.0469"/></g><g class="message" data-participant-1="app" data-participant-2="solid.idp"><ellipse cx="226.1943" cy="245.2969" fill="#000000" rx="4" ry="4" style="stroke:#666666;stroke-width:1.5;"/><polygon fill="#666666" points="478.728,242.0469,488.728,246.0469,478.728,250.0469,482.728,246.0469" style="stroke:#666666;stroke-width:1;"/><line style="stroke:#666666;stroke-width:1.5;stroke-dasharray:2,2;" x1="230.6943" x2="484.728" y1="246.0469" y2="246.0469"/></g><g class="message" data-participant-1="app" data-participant-2="solid.pod"><ellipse cx="226.1943" cy="259.2969" fill="#000000" rx="4" ry="4" style="stroke:#666666;stroke-width:1.5;"/><polygon fill="#666666" points="643.4663,256.0469,653.4663,260.0469,643.4663,264.0469,647.4663,260.0469" style="stroke:#666666;stroke-width:1;"/><line style="stroke:#666666;stroke-width:1.5;stroke-dasharray:2,2;" x1="230.6943" x2="649.4663" y1="260.0469" y2="260.0469"/></g><rect fill="#EEEEEE" height="3" style="stroke:#EEEEEE;stroke-width:1;" width="730.6782" x="0" y="288.6133"/><line style="stroke:#000000;stroke-width:1;" x1="0" x2="730.6782" y1="288.6133" y2="288.6133"/><line style="stroke:#000000;stroke-width:1;" x1="0" x2="730.6782" y1="291.6133" y2="291.6133"/><rect fill="#EEEEEE" height="23.1328" style="stroke:#000000;stroke-width:2;" width="60.541" x="335.0686" y="278.0469"/><text fill="#000000" font-family="sans-serif" font-size="13" font-weight="bold" lengthAdjust="spacing" textLength="42.0151" x="341.0686" y="294.1138">Flows</text><path d="M10,318.1797 L74.4429,318.1797 L74.4429,325.3125 L64.4429,335.3125 L10,335.3125 L10,318.1797" fill="#EEEEEE" style="stroke:#000000;stroke-width:1.5;"/><rect fill="none" height="221.7344" style="stroke:#000000;stroke-width:1.5;" width="585.2544" x="10" y="318.1797"/><text fill="#000000" font-family="sans-serif" font-size="13" font-weight="bold" lengthAdjust="spacing" textLength="19.4429" x="25" y="331.2466">alt</text><text fill="#000000" font-family="sans-serif" font-size="11" font-weight="bold" lengthAdjust="spacing" textLength="140.4487" x="89.4429" y="330.3901">[User provides WebID]</text><path d="M20,342.3125 L303.4116,342.3125 L303.4116,349.4453 L293.4116,359.4453 L20,359.4453 L20,342.3125" fill="#EEEEEE" style="stroke:#000000;stroke-width:1.5;"/><rect fill="none" height="146.6641" style="stroke:#000000;stroke-width:1.5;" width="565.2544" x="20" y="342.3125"/><text fill="#000000" font-family="sans-serif" font-size="13" font-weight="bold" lengthAdjust="spacing" textLength="238.4116" x="35" y="355.3794">Fetch WebID Profile (Example 1)</text><g class="message" data-participant-1="user" data-participant-2="app"><ellipse cx="48.4551" cy="379.8281" fill="#000000" rx="4" ry="4" style="stroke:#666666;stroke-width:1.5;"/><polygon fill="#666666" points="209.6943,376.5781,219.6943,380.5781,209.6943,384.5781,213.6943,380.5781" style="stroke:#666666;stroke-width:1;"/><line style="stroke:#666666;stroke-width:1.5;" x1="52.9551" x2="215.6943" y1="380.5781" y2="380.5781"/><text fill="#000000" font-family="sans-serif" font-size="13" font-weight="bold" lengthAdjust="spacing" textLength="23.0293" x="58.9619" y="375.5122">1.1</text><text fill="#000000" font-family="sans-serif" font-size="13" lengthAdjust="spacing" textLength="125.6963" x="85.9912" y="375.5122">Provide WebID URL</text></g><g class="message" data-participant-1="app" data-participant-2="solid.idp"><polygon fill="#666666" points="473.728,405.7109,483.728,409.7109,473.728,413.7109,477.728,409.7109" style="stroke:#666666;stroke-width:1;"/><line style="stroke:#666666;stroke-width:1.5;" x1="231.6943" x2="479.728" y1="409.7109" y2="409.7109"/><text fill="#000000" font-family="sans-serif" font-size="13" font-weight="bold" lengthAdjust="spacing" textLength="23.0293" x="279.9998" y="404.645">1.2</text><text fill="#000000" font-family="sans-serif" font-size="13" lengthAdjust="spacing" textLength="130.3936" x="307.0291" y="404.645">Request WebID URL</text></g><g class="message" data-participant-1="solid.idp" data-participant-2="app"><polygon fill="#666666" points="242.6943,434.8438,232.6943,438.8438,242.6943,442.8438,238.6943,438.8438" style="stroke:#666666;stroke-width:1;"/><line style="stroke:#666666;stroke-width:1.5;stroke-dasharray:2,2;" x1="236.6943" x2="489.728" y1="438.8438" y2="438.8438"/><text fill="#000000" font-family="sans-serif" font-size="13" font-weight="bold" lengthAdjust="spacing" textLength="23.0293" x="246.1943" y="433.7778">1.3</text><text fill="#000000" font-family="sans-serif" font-size="13" lengthAdjust="spacing" textLength="203.0044" x="273.2236" y="433.7778">Respond with Profile document</text></g><g class="message" data-participant-1="app" data-participant-2="app"><line style="stroke:#666666;stroke-width:1.5;" x1="231.6943" x2="273.6943" y1="467.9766" y2="467.9766"/><line style="stroke:#666666;stroke-width:1.5;" x1="273.6943" x2="273.6943" y1="467.9766" y2="480.9766"/><line style="stroke:#666666;stroke-width:1.5;" x1="232.6943" x2="273.6943" y1="480.9766" y2="480.9766"/><polygon fill="#666666" points="242.6943,476.9766,232.6943,480.9766,242.6943,484.9766,238.6943,480.9766" style="stroke:#666666;stroke-width:1;"/><text fill="#000000" font-family="sans-serif" font-size="13" font-weight="bold" lengthAdjust="spacing" textLength="23.0293" x="238.6943" y="462.9106">1.4</text><text fill="#000000" font-family="sans-serif" font-size="13" lengthAdjust="spacing" textLength="46.5601" x="265.7236" y="462.9106">Extract</text><text fill="#000000" font-family="monospace" font-size="13" lengthAdjust="spacing" textLength="125.2266" x="316.416" y="462.9106">solid:oidcIssuer</text></g><line style="stroke:#000000;stroke-width:1;stroke-dasharray:2,2;" x1="10" x2="595.2544" y1="496.9766" y2="496.9766"/><text fill="#000000" font-family="sans-serif" font-size="11" font-weight="bold" lengthAdjust="spacing" textLength="137.8491" x="15" y="507.187">[User Provides Issuer]</text><g class="message" data-participant-1="user" data-participant-2="app"><ellipse cx="48.4551" cy="531.1641" fill="#000000" rx="4" ry="4" style="stroke:#666666;stroke-width:1.5;"/><polygon fill="#666666" points="209.6943,527.9141,219.6943,531.9141,209.6943,535.9141,213.6943,531.9141" style="stroke:#666666;stroke-width:1;"/><line style="stroke:#666666;stroke-width:1.5;" x1="52.9551" x2="215.6943" y1="531.9141" y2="531.9141"/><text fill="#000000" font-family="sans-serif" font-size="13" font-weight="bold" lengthAdjust="spacing" textLength="23.0293" x="60.9551" y="526.8481">1.5</text><text fill="#000000" font-family="sans-serif" font-size="13" lengthAdjust="spacing" textLength="121.71" x="87.9844" y="526.8481">Provide Issuer URL</text></g><!--SRC=[VP1FQm8n4CNl-HJJFUbX1Q_IBHJ_m491iKWlGed9j0PsCsaoKUcdRpQhs_PYZc_U-qtciU46uPKQe_TsxT3M2vYJjQWOHkjwCH_lxNFa8tdpBTcGJLEDi6he32KiBx9rAJyLui5OrKIDxsGLWbHCFanSR1iXgYhx0rIL4B9Xs0Nqu3oTZCO0RtYe5-BJKtImGbR7Ne6Dfm-JuADXorX0UZ8osTWU4cCwcMOfTa0gdq0wD-k27VcAsMrV-fXYSvACdISBMNGEKYnqzq-CJk4jVaKC_2VyQxuH1limkh4Uo_8_B3Yo6iw6ZyCzcbHiqV8GrdY7VFrXFcnvOP-iK1JPDoEZLHr2H5yK0jEUNAB09c3VyURMSU-wqrLloFScaFW1]--></g></svg>